<svg width="70" height="80" viewBox="0 0 70 80" fill="none" xmlns="http://www.w3.org/2000/svg">
<g clip-path="url(#clip0_217_90)">
<path fill-rule="evenodd" clip-rule="evenodd" d="M26.0045 4.56562C21.2145 7.04545 17.2955 9.14389 17.2964 9.22924C17.2985 9.44952 28.7926 15.2347 29.2006 15.2206C29.3862 15.2144 30.7324 14.5985 32.1921 13.8521L34.8465 12.4953L37.7454 13.9762L40.6442 15.4574L45.3915 13.3373C52.5447 10.1428 53.2876 9.79276 53.1712 9.67516C53.0167 9.51911 50.4509 8.14928 43.49 4.50718C40.1258 2.74692 36.8607 1.02104 36.2338 0.671803C35.6071 0.322571 35.0087 0.0416367 34.9042 0.0470747C34.7996 0.0525127 30.7946 2.08588 26.0045 4.56562ZM4.99538 15.3777L0.00899601 17.9375V29.1717C0.00899601 35.3506 0.0744722 40.4058 0.154787 40.4058C0.234824 40.4058 2.68814 39.3489 5.60646 38.0572L10.9125 35.7085V23.8669L13.5054 25.2708C15.5035 26.3517 17.5027 27.4303 19.5032 28.5068L22.9079 30.3388L24.423 29.658C25.3731 29.2303 26.3214 28.7985 27.2677 28.3624C27.999 28.024 29.7941 27.2205 31.2568 26.5765C32.7194 25.9322 34.0734 25.2843 34.2653 25.1367C34.5204 24.9405 31.4106 23.2326 22.763 18.8193C16.2446 15.4927 10.7022 12.7814 10.4466 12.7944C10.191 12.8074 7.73796 13.9697 4.99538 15.3777ZM54.0698 16.0965C50.6738 17.6202 47.8928 18.9277 47.8897 19.0023C47.8867 19.0768 49.7377 20.1706 52.0032 21.4325C54.2685 22.6948 56.122 23.7951 56.122 23.8779C56.122 23.9606 54.1174 24.9259 51.6676 26.0234C49.2175 27.1207 43.0246 29.9002 37.9053 32.2001L20.7522 39.9057C16.4374 41.8442 12.548 43.5915 12.1093 43.789C3.29597 47.7541 0.873541 48.8543 0.540874 49.0432C0.206352 49.2333 0.130581 50.338 0.0710407 55.8823L0 62.4949L4.45905 64.7529L8.91802 67.0108L15.1011 64.2376C18.5018 62.7125 21.2841 61.3847 21.2841 61.2869C21.2841 61.1894 20.6557 60.7824 19.888 60.3822C19.1199 59.982 17.5343 59.0961 16.3642 58.4131C15.1942 57.73 14.0275 57.1034 13.7713 57.0202C13.5153 56.9374 13.3095 56.7924 13.3136 56.6978C13.3179 56.6035 16.0406 55.3182 19.3638 53.8414C25.8184 50.9733 30.7579 48.7628 41.3625 43.9968C46.1044 41.8661 50.847 39.7366 55.5902 37.6085C59.7588 35.7385 64.6055 33.5546 66.3607 32.7553L69.552 31.302L69.6229 24.6141L69.6942 17.9264L65.1717 15.6194C62.6841 14.3507 60.5579 13.3157 60.4464 13.3195C60.3351 13.323 57.4656 14.5725 54.0698 16.0965ZM68.3403 40.2241C67.6739 40.5476 66.3575 41.1533 65.415 41.57C64.4726 41.9867 62.6841 42.7887 61.4408 43.3525L59.1803 44.3772L59.1288 50.2486C59.1003 53.4778 58.9806 56.1055 58.8629 56.0885C58.5953 56.0489 54.3586 53.8896 50.0999 51.6216C47.0261 49.985 46.8331 49.9199 46.1108 50.2754C45.6933 50.481 43.1975 51.5934 40.5647 52.7479C37.9318 53.9021 35.6919 54.9219 35.5866 55.0142C35.4815 55.1064 40.7803 57.9606 47.3621 61.3573L59.3285 67.533L64.4404 64.9049C67.2516 63.4597 69.6421 62.1414 69.7522 61.9756C70 61.6027 69.9788 39.5847 69.7307 39.6145C69.6326 39.6262 69.0067 39.9006 68.3403 40.2241ZM40.0328 66.0677C39.1461 66.4466 38.2596 66.826 37.3734 67.2059C34.6973 68.3566 35.2217 68.3947 32.0379 66.8196C29.9173 65.7705 29.0032 65.4468 28.6065 65.6039C28.3089 65.7217 25.7476 66.8669 22.9143 68.1487C20.0812 69.4305 17.6649 70.4793 17.5447 70.4793C16.356 70.4793 18.3322 71.6527 25.9578 75.4755L34.9007 79.9584L38.6635 78.1122C40.733 77.0968 44.9072 75.0634 47.9397 73.5937C50.9719 72.1236 53.4154 70.8827 53.3696 70.8359C53.3235 70.7892 50.7828 69.4926 47.7232 67.9544L42.1603 65.1582L40.0328 66.0677Z" fill="#05A3C9"/>
</g>
<defs>
<clipPath id="clip0_217_90">
<rect width="70" height="80" fill="white"/>
</clipPath>
</defs>
</svg>
