<svg width="80" height="80" viewBox="0 0 80 80" fill="none" xmlns="http://www.w3.org/2000/svg">
<g clip-path="url(#clip0_217_84)">
<path d="M16.6607 38.0448C16.6607 36.1984 18.1776 34.6816 20.021 34.6816H25.6888C27.5354 34.6816 29.1164 36.1984 29.1164 38.112V59.4848C29.7756 59.2864 30.5661 59.088 31.491 58.8896C32.7423 58.56 33.6672 57.44 33.6672 56.1184V29.6C33.6672 27.7536 35.1842 26.1696 37.0948 26.1696H42.7626C44.6092 26.1696 46.1901 27.6864 46.1901 29.6V54.208C46.1901 54.208 47.5759 53.6128 48.9584 53.0208C50.0145 52.56 50.6738 51.5712 50.6738 50.3808V21.0272C50.6738 19.1808 52.1908 17.5968 54.0374 17.5968H59.7052C61.5518 17.5968 63.0687 19.1136 63.0687 21.0272V45.2384C67.946 41.6768 72.9577 37.3888 76.9134 32.2432C78.1007 30.7264 78.4303 28.7456 77.7711 26.8992C70.5191 6.05443 47.7135 -5.03037 26.8825 2.22723C6.05154 9.48483 -5.02162 32.3072 2.22714 53.1552C3.01762 55.5296 4.07373 57.7728 5.32506 59.9488C6.31397 61.664 8.16056 62.6528 10.1384 62.4544C11.1945 62.3872 12.513 62.256 14.158 62.0576C15.6077 61.9264 16.6639 60.672 16.6639 59.2192L16.6607 38.0448Z" fill="#21325B"/>
<path d="M16.5264 72.3488C34.3906 85.344 59.3757 81.3856 72.3594 63.5104C77.3039 56.6496 80.005 48.4032 80.005 39.9616C80.005 39.0368 79.9378 38.1152 79.8738 37.1904C65.3091 59.024 38.3463 69.248 16.5264 72.3488Z" fill="#979695"/>
</g>
<defs>
<clipPath id="clip0_217_84">
<rect width="80" height="80" fill="white"/>
</clipPath>
</defs>
</svg>
