<svg width="80" height="80" fill="none" xmlns="http://www.w3.org/2000/svg">
    <path fill-rule="evenodd" clip-rule="evenodd" d="M28.25 26.38c-.483-.61-7.209-8.446-14.335-16.705C5.395 17.01 0 27.875 0 40c0 22.091 17.909 40 40 40s40-17.909 40-40S62.091 0 40 0a39.835 39.835 0 0 0-25.35 9.057c7.04 7.337 14.846 15.502 15.834 16.58l.51.52-.04.855c-.038 1.153-.43 1.934-1.332 2.715-1.02.93-2.313 1.413-4.313 1.674-1.215.148-1.646.334-2.156.855-.47.483-.666 1.116-.784 2.678-.196 2.454-.51 3.458-1.725 5.876-1.176 2.343-1.411 3.198-1.215 4.462.235 1.488 1.137 2.604 3.254 3.98 1.607 1.041 2.352 1.71 2.744 2.529.235.52.274.706.274 1.562 0 1.338-.235 1.86-1.176 2.826-1.529 1.562-4.312 2.827-7.684 3.57-1.411.298-1.49.298-1.49 0 0-.372-.549-1.376-1.45-2.715-1.059-1.524-1.49-2.305-1.882-3.495-.431-1.34-.588-2.232-.51-3.645.079-1.339.235-1.934.784-2.975.432-.856.706-1.227 2.47-3.31 3.019-3.533 4.077-5.616 4.47-8.554.352-2.64.823-3.905 1.881-5.02.628-.67.784-.93.784-1.414 0-.223-.98-2.045-3.998-7.14-4.783-8.107-4.783-8.107-4.627-8.033.04.037 2.274 3.273 4.901 7.178 3.45 5.095 4.98 7.214 5.332 7.55.51.483 1.255.78 1.882.78.549 0 1.686-.297 2.234-.595.98-.52 1.216-1.227.628-1.971ZM16.37 51.483c.432-.706.197-1.599-.509-2.045-.667-.41-1.686-.223-1.686.334 0 .15.079.298.314.372.353.186.392.372.117.781-.274.41-.274.781.079 1.042.549.409 1.294.186 1.686-.484Zm12.038-38.268c-.392.037-.352.074.47.186 3.02.446 5.333 1.562 7.646 3.682 1.058.966 2.117 2.12 3.803 4.24 3.803 4.797 5.45 6.098 8.664 7.102 1.882.595 3.803.856 7.175 1.042 3.724.186 5.135.446 6.468 1.301.745.484 1.294 1.042 1.882 1.897l.353.484-.078-.558c-.236-2.083-1.804-5.02-3.803-7.14l-.353-.373-.196.781c-.47 1.971-1.45 3.385-2.392 3.385-.43 0-.901-.26-1.058-.633-.196-.483-.196-.632.117-1.19.588-1.004.706-2.305.432-4.053-.079-.484-.196-.967-.275-1.042-.196-.223-1.803-1.115-2.822-1.562-3.725-1.636-8.194-2.157-12.546-1.487l-1.02.148-.705-.78c-2.705-2.864-5.254-4.5-8.076-5.133-1.216-.26-2.94-.409-3.686-.297Zm29.676 4.909c.079-1.413.275-2.343.706-3.198.157-.335.314-.633.353-.633.04 0-.04.26-.157.558-.313.818-.353 1.971-.157 3.273.275 1.673.392 1.896 2.274 3.719a61.535 61.535 0 0 1 2.274 2.38l.667.818-.667-.595c-.823-.744-2.705-2.157-3.136-2.343-.275-.149-.314-.149-.51.037-.157.15-.196.372-.196 1.45-.04 1.674-.274 2.716-.862 3.794-.314.558-.353.446-.079-.186.196-.483.235-.706.235-2.306 0-3.235-.392-4.016-2.783-5.318-.588-.334-1.608-.818-2.196-1.078-.627-.26-1.097-.484-1.058-.484.078-.074 2.391.558 3.293.93 1.372.52 1.607.558 1.764.52.118-.11.196-.408.236-1.338Zm-30.07-2.455c-.235 2.492.824 5.84 2.47 7.996 1.294 1.674 3.294 2.975 4.784 3.124.98.074 1.254-.223.823-.818-.627-.818-1.372-2.12-1.568-2.678-.118-.334-.392-1.376-.588-2.268-.667-3.05-1.373-4.277-2.94-5.17-.589-.335-1.804-.78-2.51-.892l-.392-.075-.078.781Zm28.07 24.174C48.32 36.868 45.577 34.3 45.577 29.95c0-.632.039-1.153.039-1.153.026 0 .157.1.345.242l.321.242c1.569 1.19 3.333 1.71 8.234 2.38 2.861.41 4.508.707 5.998 1.19 4.744 1.488 7.684 4.537 8.39 8.665.196 1.19.078 3.459-.236 4.649-.274.93-1.058 2.64-1.254 2.678-.04 0-.118-.186-.118-.484-.078-1.562-.901-3.05-2.274-4.202-1.646-1.34-3.763-2.343-8.938-4.314Zm-5.88-.335c.118.298.314 1.004.392 1.562.628 3.496-1.293 6.36-5.175 7.512-.392.15-1.96.447-3.489.67-3.097.52-4.509.855-5.88 1.487-.98.447-2.196 1.116-2.118 1.19.04.038.275-.037.51-.111 1.764-.595 3.724-.893 6.665-1.041.984-.063 2.078-.151 2.685-.2l.294-.023c2.627-.335 4.47-1.08 5.881-2.455.784-.781 1.255-1.488 1.647-2.492.235-.632.274-.892.274-2.008 0-1.153 0-1.376-.274-2.083-.353-.93-.745-1.599-1.255-2.157l-.353-.409.196.558Zm3.96 7.55c-1.02-2.12-1.254-4.129-.706-6.025.079-.186.157-.372.236-.372.078 0 .313.111.549.26.47.298 1.45.819 3.96 2.12 3.175 1.637 4.978 2.9 6.233 4.351 1.098 1.265 1.764 2.715 2.078 4.5.196 1.004.078 3.422-.196 4.426-.863 3.161-2.823 5.69-5.685 7.14-.431.224-.784.372-.823.372-.04 0 .117-.372.352-.818.941-1.897 1.059-3.719.353-5.764-.43-1.265-1.333-2.79-3.136-5.356-2.156-2.975-2.666-3.756-3.215-4.834ZM34.72 53.975c-3.293.52-6.86 2.157-9.762 4.463l-.823.743.745.112c3.92.558 4.979 1.078 7.723 3.756 1.568 1.525 2.117 1.86 3.41 2.194 1.922.484 3.804-.371 4.47-2.008.275-.744.235-1.934-.078-2.529-.784-1.45-3.098-1.897-4.195-.855-.902.855-.627 2.194.51 2.417.106.017.164.026.167.017.004-.01-.074-.047-.246-.128-.51-.223-.745-.521-.745-1.004-.039-1.153 1.333-1.748 2.588-1.228.94.41 1.294.93 1.294 1.823 0 1.376-1.255 2.454-2.706 2.268-.784-.111-1.725-.558-2.234-1.116-1.255-1.338-.785-3.533 1.019-4.35 1.372-.633 3.176-.447 4.587.408 1.607 1.004 2.313 1.897 3.685 4.91.47 1.003 1.02 2.082 1.294 2.454 1.294 1.86 2.901 2.79 4.783 2.79 1.058 0 1.843-.15 2.823-.633.705-.335 1.764-1.004 1.685-1.079 0-.029-.194.034-.45.117l-.216.07c-2.078.743-4.195.706-5.41-.15-.784-.557-1.412-1.599-1.725-2.937l-.039-.212c-.074-.409-.227-1.245-.353-2.057-.432-2.566-.863-3.719-1.804-5.058-.98-1.376-2.862-2.492-4.94-3.012-1.293-.335-3.646-.41-5.057-.186Zm-4.59-19.86c.275-.966 1.177-1.933 2.118-2.194.627-.186 1.842-.074 2.43.224 1.137.557 1.96 1.785 1.764 2.677-.196 1.079-2.038 1.971-4.194 1.971-1.098 0-1.49-.148-1.922-.67-.274-.334-.352-1.412-.196-2.007Zm4.235-1.599c.588.335.705.819.392 1.265-.236.297-.941.595-1.451.595-.784 0-1.607-.52-1.607-1.004 0-.967 1.607-1.488 2.665-.856Z" fill="#FF007A"/>
</svg>
