<svg width="29" height="19" viewBox="0 0 29 19" fill="none" xmlns="http://www.w3.org/2000/svg">
<path fill-rule="evenodd" clip-rule="evenodd" d="M2.51482 0.807792C1.66218 0.322457 0.687161 0.671986 0.337052 1.58849C-0.013056 2.50498 0.394327 3.6414 1.24697 4.12673L10.6248 9.46471L1.24769 14.8023C0.395051 15.2876 -0.0123319 16.424 0.337776 17.3405C0.687885 18.257 1.66291 18.6066 2.51555 18.1212L14.1741 11.485L25.8327 18.1212C26.6853 18.6066 27.6603 18.257 28.0104 17.3405C28.3605 16.424 27.9532 15.2876 27.1005 14.8023L17.7234 9.46471L27.1012 4.12673C27.9539 3.6414 28.3613 2.50498 28.0112 1.58849C27.661 0.671986 26.686 0.322457 25.8334 0.807792L14.1741 7.44441L2.51482 0.807792Z" fill="white"/>
</svg>
