<svg width="28" height="17" viewBox="0 0 28 17" fill="none" xmlns="http://www.w3.org/2000/svg">
<path fill-rule="evenodd" clip-rule="evenodd" d="M0 1.5C0 0.671573 0.671573 0 1.5 0H26.5C27.3284 0 28 0.671573 28 1.5C28 2.32843 27.3284 3 26.5 3H1.5C0.671572 3 0 2.32843 0 1.5ZM0 15.5C0 14.6716 0.671573 14 1.5 14H26.5C27.3284 14 28 14.6716 28 15.5C28 16.3284 27.3284 17 26.5 17H1.5C0.671572 17 0 16.3284 0 15.5ZM1.5 7C0.671573 7 0 7.67157 0 8.5C0 9.32843 0.671572 10 1.5 10H26.5C27.3284 10 28 9.32843 28 8.5C28 7.67157 27.3284 7 26.5 7H1.5Z" fill="white"/>
</svg>
