<svg width="1440" height="16" viewBox="0 0 1440 16" fill="none" xmlns="http://www.w3.org/2000/svg">
<path fill-rule="evenodd" clip-rule="evenodd" d="M1440 8.5V14.3074L1418.91 14.3074C1413.85 14.3195 1397.14 14.8173 1381.78 15.4128C1363.13 16.1358 1346.17 16.1249 1330.69 15.3788C1317.95 14.7645 1287.68 14.0569 1263.43 13.8064C1236.04 13.524 1217.45 12.8823 1214.36 12.1131C1211.63 11.4319 1208.31 11.1913 1206.99 11.5791C1205.67 11.967 1201.28 11.878 1197.24 11.3802L1189.9 10.477L1197.03 9.81885C1200.95 9.45625 1185.98 9.16397 1163.76 9.16947C1141.54 9.17386 1127.11 9.46724 1131.68 9.81995C1141.49 10.577 1118.95 11.4649 1045.54 13.2141C1019.73 13.8295 985.247 14.8316 968.911 15.4403C948.909 16.1875 932.029 16.1864 917.228 15.4381C905.139 14.8261 874.931 14.0679 850.099 13.7525C825.267 13.4372 803.614 12.8438 801.98 12.434C800.347 12.0241 795.802 11.7989 791.881 11.9329C787.96 12.0681 782.881 11.8121 780.594 11.3649L776.436 10.5518L781.782 9.83643C784.723 9.44306 769.485 9.1332 747.921 9.14969C726.356 9.16507 712.455 9.46834 717.03 9.82325C726.701 10.5737 704.621 11.4341 629.703 13.224C603.891 13.8405 570.208 14.8162 554.852 15.392C536.415 16.0842 519.867 16.0578 506.139 15.3172C494.703 14.6997 474.386 14.2129 460.99 14.2338C428.627 14.2866 384.676 12.3549 383.66 10.8352C383.102 10.0002 382.634 10.0111 382.059 10.8704C381.173 12.1945 367.458 12.556 364.046 11.3451C362.107 10.6572 362.121 10.5441 364.245 9.7738C365.505 9.3178 348.624 9.00684 326.733 9.08266C304.842 9.15848 292.545 9.49471 299.406 9.82984C311.294 10.41 310.764 10.477 288.119 11.2594C275.049 11.7121 243.238 12.5878 217.426 13.2064C191.614 13.824 157.396 14.8019 141.386 15.3777C123.11 16.0347 104.097 16.0402 90.297 15.392C78.2079 14.8239 55.7525 14.3382 40.396 14.3129C25.0396 14.2866 9.66891 13.9536 6.23762 13.5723L0 12.879V6.44005V0H725.941H1440V8.5Z" fill="white"/>
</svg>
