<svg width="80" height="80" viewBox="0 0 80 80" fill="none" xmlns="http://www.w3.org/2000/svg">
<path d="M13.5553 26.1829C14.4241 24.8796 16.0398 22.8804 17.1132 21.761C17.2439 21.6246 17.3195 21.4439 17.3195 21.255C17.3195 20.7254 16.6826 20.3407 16.2006 20.1211C16.1875 20.1151 16.1744 20.1089 16.1613 20.1023C14.6321 19.3377 16.2286 17.7753 17.0642 17.3185C17.2273 17.2294 17.4139 17.2094 17.5989 17.1922C18.0153 17.1535 18.646 17.0296 19.1775 16.731C19.2923 16.6665 19.397 16.5832 19.4668 16.4715C19.9229 15.741 20.2222 13.6375 20.3839 11.8933C20.4719 10.9436 21.1811 10.1591 22.1256 10.026C28.4675 9.13164 38.8995 7.76399 39.9046 7.36194C41.0323 6.91088 42.5698 6.98681 43.6963 7.04244L43.7097 7.0431C44.2395 7.06926 44.748 7.28226 45.1206 7.65984C46.3865 8.94289 48.5592 11.187 50.3286 13.153C51.3122 14.2459 51.9908 15.167 52.4433 15.8857C52.9878 16.7507 53.9992 17.4064 55.0195 17.4657C55.888 17.5162 56.725 17.6805 56.9883 18.0754C57.2229 18.4664 57.2661 18.7804 57.1981 19.0285C57.0241 19.664 56.3457 20.5849 56.0934 21.1935C55.872 21.7275 56.0223 22.3912 56.4615 22.767C56.9834 23.2137 57.5084 23.7873 57.9757 24.3587C58.7095 25.2558 60.3673 26.4087 61.3316 27.0516C62.1151 27.5739 62.1993 28.1208 62.0198 28.5678C61.7707 29.1883 61.3316 29.7694 61.3316 30.4381V34.2904C61.3316 35.2159 60.8915 35.9967 60.388 36.5683C59.9309 37.0872 59.8522 37.9557 60.3279 38.4576C60.838 38.9957 61.3743 39.6405 61.7111 40.2464C61.8583 40.5112 62.0347 40.7626 62.2372 40.9879C63.7295 42.648 62.9507 44.4536 61.8857 45.6887C61.2899 46.3796 61.0531 47.338 61.0705 48.2502C61.0945 49.5049 60.5011 50.4837 59.9594 51.0471C59.7489 51.2661 59.6218 51.56 59.6341 51.8635C59.6803 53.005 59.4253 54.2193 59.145 55.1426C59.0715 55.3845 59.4155 55.6066 59.5943 55.4278C62.9583 52.0639 65.166 54.25 66.4241 56.1995C66.6996 56.6265 67.1082 56.9481 67.5714 57.157C71.1459 58.7689 74.9969 63.9563 75.8093 65.8518C76.4224 67.2823 75.4279 68.8179 74.655 69.6237C74.5023 69.7829 74.4937 70.0377 74.6496 70.1936C74.8066 70.3506 74.7967 70.608 74.6281 70.7525L73.7141 71.5359C73.2342 71.9473 72.5474 72.0126 71.9985 71.6989L71.8339 71.6049C71.2535 71.2732 70.5311 71.2962 69.9142 71.5536C69.3458 71.7908 68.7107 72.0044 68.2595 72.1424C68.0818 72.1968 67.8977 72.2219 67.7119 72.2219H60.7525C58.8015 72.2219 56.9266 70.8907 55.6484 69.6297C54.8799 68.8716 53.5914 68.5025 52.5334 68.717C51.2279 68.9816 49.5801 69.2101 48.5913 69.3264L11.2388 69.616C9.3733 69.3828 6.19316 68.5862 4.72332 67.9824C4.23267 67.7809 3.99466 67.2914 4.00761 66.7612C4.02559 66.0249 4.08608 64.991 4.28955 62.9562C4.57911 60.0607 4 55.4278 4.86866 48.7681C5.09085 47.0646 5.46197 45.4919 5.63947 44.2626C5.72957 43.6386 5.35473 43.0626 5.16704 42.4607C4.92136 41.6728 5.34123 40.7475 6.20593 40.1314C7.00219 39.5641 7.81842 38.787 8.03552 37.8337C8.62668 35.238 10.0499 30.8465 10.9493 29.9471C12.1075 28.7889 12.3971 27.9202 13.5553 26.1829Z" fill="#3D7937"/>
<path d="M13.5553 26.1829C14.4593 24.8269 16.1718 22.7175 17.2407 21.6295C17.2932 21.5762 17.3404 21.5187 17.3819 21.4565L17.7258 20.9405C17.8263 20.7899 17.8064 20.5892 17.6784 20.4612L17.5034 20.2862C17.3287 20.1115 16.6718 19.9233 16.4508 19.8127C14.9284 19.0515 16.274 17.7297 17.0625 17.3152C17.227 17.2287 17.4139 17.2094 17.5989 17.1922C18.0153 17.1535 18.646 17.0296 19.1775 16.731C19.2923 16.6665 19.397 16.5832 19.4668 16.4715C19.9229 15.741 20.2222 13.6375 20.3839 11.8933C20.4719 10.9436 21.1811 10.1593 22.125 10.0219C28.4587 9.09986 38.8432 7.57424 39.9046 7.36194C40.8185 7.17917 42.5135 7.10456 43.7096 7.08121C44.2399 7.07086 44.748 7.28226 45.1206 7.65984C46.3865 8.94289 48.5592 11.187 50.3286 13.153C51.3437 14.2809 51.9652 15.2944 52.3469 16.0932C52.7876 17.0154 53.7096 17.696 54.73 17.7553C55.5984 17.8058 56.4354 17.97 56.6988 18.365C56.9673 18.8126 56.9418 19.116 56.776 19.3255C56.3811 19.8242 55.9011 20.5593 55.8519 21.1935C55.8088 21.7499 56.0059 22.3811 56.4318 22.7417C56.9634 23.1919 57.4995 23.7765 57.9757 24.3587C58.7095 25.2558 60.3673 26.4087 61.3316 27.0516C62.1151 27.5739 62.1993 28.1208 62.0198 28.5678C61.7707 29.1883 61.3316 29.7694 61.3316 30.4381V34.2904C61.3316 35.2159 60.8915 35.9967 60.388 36.5683C59.9309 37.0872 59.8522 37.9557 60.3279 38.4576C60.838 38.9957 61.3743 39.6405 61.7111 40.2464C61.8583 40.5112 62.0347 40.7626 62.2372 40.9879C63.7295 42.648 62.9507 44.4536 61.8857 45.6887C61.2899 46.3796 61.0531 47.338 61.0705 48.2502C61.0833 48.9204 60.92 49.5118 60.6825 50.0033C60.2436 50.9115 60.0907 52.0622 59.9881 53.0656C59.8691 54.2295 58.9941 55.1134 58.7256 55.7174L59.3047 55.1383C62.6747 51.7683 65.1163 54.2003 66.4219 56.2011C66.6996 56.6266 67.1082 56.9481 67.5714 57.157C71.1459 58.7689 74.9969 63.9563 75.8093 65.8518C76.5042 67.4733 75.1337 69.2299 74.3615 69.9055L72.6242 71.9324L71.925 71.5828C71.2831 71.2618 70.5134 71.3078 69.8495 71.5804C69.2981 71.8069 68.6937 72.0096 68.2595 72.1424C68.0818 72.1968 67.8977 72.2219 67.7119 72.2219H60.7525C57.9728 72.2219 55.8301 70.1951 55.251 68.1682C54.5677 68.6237 50.3763 69.1165 48.6762 69.3164L48.5913 69.3264L11.2388 69.616C9.3733 69.3828 6.19316 68.5862 4.72332 67.9824C4.23267 67.7809 3.99466 67.2914 4.00761 66.7612C4.02559 66.0249 4.08608 64.991 4.28955 62.9562C4.57911 60.0607 4 55.4278 4.86866 48.7681C5.09116 47.0623 5.63585 45.4876 5.89166 44.2575C6.02003 43.6403 5.68079 43.0647 5.37652 42.5125C4.76902 41.4101 5.31851 40.103 7.18509 39.7919C7.18509 39.7919 9.79107 31.1053 10.9493 29.9471C12.1075 28.7889 12.3971 27.9202 13.5553 26.1829Z" fill="#3A963D" stroke="black"/>
<path d="M55.2503 47.0308C60.5781 46.7992 61.524 42.1084 61.3309 39.792C64.5739 43.035 62.2961 45.7761 60.7518 46.7413C61.2344 47.6099 61.6784 49.8105 59.5936 51.6637C54.9608 54.4434 41.85 53.7377 36.1398 51.9532C31.5069 50.5055 23.3994 46.4517 23.3994 44.1353C23.3994 41.8189 25.7158 42.9771 27.7427 43.5562L37.8771 45.8726C41.4483 46.3552 49.9225 47.2625 55.2503 47.0308Z" fill="#156815" stroke="black"/>
<path d="M26.0059 44.7144C28.3223 45.7761 33.3026 47.8995 34.6925 47.8995C36.4298 47.8995 40.194 48.1891 42.2209 48.7682C44.2477 49.3473 56.1194 49.6368 57.5672 49.0577C58.7254 48.5944 59.8836 47.3204 60.7523 46.7413" stroke="black"/>
<path d="M22.2412 43.5562C22.3377 42.6875 23.4573 41.066 27.1636 41.5293" stroke="black" stroke-linecap="round"/>
<path d="M23.6885 40.0815C24.0745 39.792 25.1362 39.2708 26.2945 39.5024" stroke="black" stroke-linecap="round"/>
<path d="M57.8548 61.2189C57.7582 62.4737 58.2022 65.1569 60.7503 65.8518" stroke="black"/>
<path d="M56.6973 70.4846C55.8287 69.616 54.6704 68.1682 54.96 64.9831C54.3809 62.3771 50.7325 61.6243 51.1958 59.7712C51.6591 57.918 54.1879 58.5164 55.2496 58.9025L59.0138 55.4279C58.1144 56.0098 56.7915 57.0152 55.9324 58.0338M62.4884 62.3771C63.3571 61.8946 65.0944 59.1921 65.0944 59.1921C65.0944 59.1921 63.3571 57.7443 61.9093 58.9025C59.8824 60.9294 56.4078 62.0876 55.2496 60.3503C54.8309 59.7223 55.2241 58.8735 55.9324 58.0338M62.4884 62.3771L67.1213 59.1921M62.4884 62.3771C61.1372 63.3423 59.1296 65.6781 61.9093 67.2996C63.5308 68.2261 64.3222 67.8787 64.5153 67.5891M64.5153 67.5891C64.9979 66.4309 66.3105 64.0566 67.7004 63.8249C67.0247 64.1145 65.4418 65.2727 64.5153 67.5891ZM64.5153 67.5891C64.7083 68.7473 65.7314 70.7163 68.2795 69.3264M68.2795 69.3264C69.4377 67.9366 70.6924 66.4309 71.175 65.8518L68.2795 69.3264ZM68.2795 69.3264C68.569 70.1951 69.5535 71.6429 71.175 70.4846C72.7965 68.6315 73.588 67.5891 73.781 67.2996M55.9324 58.0338C56.6699 57.8408 58.1451 58.0338 58.4346 58.9025C58.4346 59.5974 58.0486 59.8677 57.8555 60.0607" stroke="black" stroke-linecap="round" stroke-linejoin="round"/>
<path d="M41.3512 29.9471L26.584 30.5263C29.7691 31.3949 31.5064 34.0009 36.7184 35.4487C40.8879 36.6069 44.6328 35.7382 45.9841 35.1591C45.8876 34.8696 45.6366 34.0588 45.405 33.1322C44.4784 30.3525 42.799 29.9471 41.3512 29.9471Z" fill="white" stroke="black"/>
<path d="M31.7962 33.1322C31.5646 31.7424 32.6649 30.6228 33.244 30.2367L38.7455 29.9471C41.5252 30.8737 40.2898 34.1939 39.3246 35.7382C38.649 35.7382 37.0082 35.6224 35.85 35.1591C33.9968 34.4642 32.3753 33.5183 31.7962 33.1322Z" fill="black"/>
<path d="M29.5904 33.4114C29.4247 33.1905 29.1113 33.1457 28.8904 33.3114C28.6695 33.4771 28.6247 33.7905 28.7904 34.0114L29.5904 33.4114ZM43.9577 38.0547L43.8956 38.5508C43.9759 38.5608 44.0575 38.5512 44.1332 38.5228L43.9577 38.0547ZM28.7904 34.0114C29.2473 34.6205 30.0597 35.5229 31.034 36.2782C31.9944 37.0227 33.1909 37.686 34.4024 37.686V36.686C33.5291 36.686 32.5539 36.1911 31.6467 35.4878C30.7535 34.7954 30.0022 33.9604 29.5904 33.4114L28.7904 34.0114ZM34.4024 37.686C36.4494 37.686 41.5691 38.26 43.8956 38.5508L44.0197 37.5585C41.7134 37.2702 36.525 36.686 34.4024 36.686V37.686ZM44.1332 38.5228C44.9219 38.2271 46.0341 37.6898 46.687 37.0314C47.009 36.7067 47.3113 36.2593 47.2624 35.7285C47.2117 35.1785 46.8076 34.7548 46.2274 34.4325L45.7417 35.3067C46.2039 35.5634 46.2606 35.7551 46.2666 35.8203C46.2744 35.9049 46.2293 36.0727 45.977 36.3272C45.4813 36.827 44.5377 37.3032 43.7821 37.5865L44.1332 38.5228Z" fill="black"/>
<path d="M41.0621 40.9502L41.2849 41.5072L41.0621 40.9502ZM35.5605 42.377C35.2292 42.377 34.9605 42.6457 34.9605 42.977C34.9605 43.3084 35.2292 43.577 35.5605 43.577V42.377ZM43.4488 37.7366C43.2243 38.0958 42.8114 38.6744 42.3197 39.2141C41.8148 39.7684 41.2871 40.2139 40.8392 40.3931L41.2849 41.5072C41.9953 41.2231 42.6741 40.607 43.2067 40.0223C43.7526 39.4231 44.2083 38.7856 44.4664 38.3726L43.4488 37.7366ZM40.8392 40.3931C40.4347 40.5549 40.0406 40.773 39.6605 40.9902C39.2706 41.213 38.8925 41.4365 38.4773 41.6441C37.6623 42.0516 36.7421 42.377 35.5605 42.377V43.577C36.9849 43.577 38.0916 43.1786 39.014 42.7174C39.4675 42.4907 39.8856 42.2437 40.2558 42.0321C40.6357 41.815 40.9656 41.635 41.2849 41.5072L40.8392 40.3931Z" fill="black"/>
<path d="M47.1428 32.2636C47.7219 30.2367 47.1428 29.6576 45.9846 27.9202C45.058 26.5304 43.6681 25.6038 42.7995 25.6038H39.6144C39.294 25.6038 38.3221 25.6038 37.8771 25.6038M47.1428 32.2636V34.0009M47.1428 32.2636C45.309 30.1402 40.4251 25.8355 37.8771 25.6038M37.8771 25.6038C35.6414 25.6038 32.667 25.6038 30.3487 25.6038C27.9663 25.6038 26.2645 27.7308 25.4621 29.2503C25.2245 29.7003 24.99 30.3216 25.3703 30.6598C25.6386 30.8983 26.1751 30.7873 27.1636 29.6576C29.1905 27.3411 32.086 26.762 34.692 26.762C36.7768 26.762 42.2204 29.9471 43.6681 30.5262" stroke="black" stroke-width="1.2" stroke-linecap="round"/>
<path d="M43.0898 21.8396C44.2481 22.9013 46.1591 25.3142 45.6958 27.6307" stroke="black"/>
<circle cx="34.1133" cy="31.3949" r="0.579107" fill="white"/>
<circle cx="34.5766" cy="33.0164" r="0.463286" fill="white"/>
<ellipse cx="37.8446" cy="32.6068" rx="0.86189" ry="1.07363" transform="rotate(32.2439 37.8446 32.6068)" fill="white"/>
<path d="M48.5912 34.2905L48.5912 34.2905C49.1703 33.1323 50.9077 30.9124 51.7763 30.2368H56.549C56.8384 30.2368 57.1244 30.2989 57.3863 30.4221C58.7522 31.0645 61.042 32.2142 61.042 32.8427C60.8104 34.4642 58.3395 35.4487 57.2778 35.7383H50.6181C48.3017 35.7383 48.4947 34.7731 48.5912 34.2905Z" fill="white" stroke="black"/>
<path d="M50.3284 35.4487C49.8651 33.8272 50.3284 32.0706 50.6179 31.395L51.7761 30.2368H55.8299C58.4359 32.2636 56.9881 35.1592 56.1194 35.7383C54.2856 35.8348 50.56 35.912 50.3284 35.4487Z" fill="black"/>
<path d="M54.3819 37.7651C53.4167 38.0547 51.0231 38.3442 49.1699 37.186C50.5212 37.9582 53.4553 39.9078 54.3819 41.5293" stroke="black" stroke-linecap="round" stroke-linejoin="round"/>
<path d="M56.4092 37.4756C57.2778 37.7652 59.5943 37.1861 61.042 35.4487" stroke="black" stroke-linecap="round"/>
<path d="M56.1201 38.9233C57.0853 39.1163 59.3052 38.6338 60.753 36.0278" stroke="black" stroke-linecap="round"/>
<path d="M49.46 29.6576C51.1973 27.9203 54.4982 26.2409 60.7526 27.6307" stroke="black" stroke-width="1.2" stroke-linecap="round"/>
<path d="M51.6008 26.0044C51.3422 26.1013 51.2112 26.3895 51.3082 26.6481C51.4052 26.9066 51.6934 27.0376 51.9519 26.9407L51.6008 26.0044ZM51.9519 26.9407C53.0401 26.5326 54.4983 26.3063 55.9773 26.2993C57.4577 26.2923 58.9086 26.5051 59.9877 26.9368L60.3591 26.0083C59.1218 25.5134 57.5324 25.2919 55.9725 25.2993C54.4112 25.3067 52.8291 25.5438 51.6008 26.0044L51.9519 26.9407Z" fill="black"/>
<circle cx="52.0664" cy="31.974" r="0.579107" fill="white"/>
<circle cx="52.5297" cy="34.1747" r="0.463286" fill="white"/>
<ellipse cx="55.1054" cy="33.342" rx="0.86189" ry="1.07363" transform="rotate(32.2439 55.1054 33.342)" fill="white"/>
<path d="M48.5908 34.2905C49.8456 32.2636 52.759 28.2854 55.5401 28.4994C59.3043 28.7889 59.3043 29.6576 61.3312 31.3949" stroke="black" stroke-width="1.2"/>
<path d="M61.0415 29.9472C61.0415 28.789 61.0415 27.6307 59.5938 26.4725C59.8833 26.4725 60.9257 26.6463 61.6206 27.3412C62.3156 28.0361 61.4276 29.3681 61.0415 29.9472Z" fill="black"/>
<path d="M45.2927 7.84894C46.5587 9.13199 48.7313 11.3761 50.5007 13.3421C51.4227 14.3665 52.0766 15.2399 52.5276 15.9372C49.9795 16.1602 48.1843 17.3886 47.6052 17.975C45.2887 16.5851 42.3932 17.5889 41.235 18.2645C39.8451 16.643 37.3743 17.5889 36.3126 18.2645C35.6177 17.1063 33.4483 16.6277 32.6657 16.6277C22.2936 34.2159 17.0444 39.6127 14.8856 38.5333C13.0325 37.6067 17.2021 23.6695 19.5185 16.8168C20.0429 16.2923 20.3805 13.9757 20.556 12.0824C20.6441 11.1327 21.3532 10.3482 22.2978 10.2156C28.6411 9.32483 39.0818 7.97748 40.0768 7.55104C41.6293 6.88566 42.8987 7.06973 43.885 7.19232C44.4114 7.25774 44.9202 7.47136 45.2927 7.84894Z" fill="#DF1B1B"/>
<path d="M50.5007 13.3421L49.9804 13.8104L50.5007 13.3421ZM45.2927 7.84894L45.791 7.3573L45.791 7.3573L45.2927 7.84894ZM43.885 7.19232L43.7986 7.88697L43.885 7.19232ZM40.0768 7.55104L40.3525 8.19444V8.19444L40.0768 7.55104ZM22.2978 10.2156L22.2005 9.52238L22.2978 10.2156ZM20.556 12.0824L21.253 12.1471L20.556 12.0824ZM19.5185 16.8168L19.0235 16.3218L18.9078 16.4375L18.8554 16.5926L19.5185 16.8168ZM14.8856 38.5333L15.1987 37.9072H15.1987L14.8856 38.5333ZM35.8605 12.9524C36.0696 12.6272 35.9754 12.1941 35.6502 11.9851C35.325 11.776 34.8919 11.8702 34.6829 12.1954L35.8605 12.9524ZM36.3126 18.2645L35.7123 18.6247L36.0821 19.2409L36.6884 18.8551L36.3126 18.2645ZM41.235 18.2645L40.7035 18.7201L41.0834 19.1633L41.5877 18.8692L41.235 18.2645ZM47.6052 17.975L47.245 18.5752L47.7167 18.8582L48.1032 18.4669L47.6052 17.975ZM52.5276 15.9372L52.5886 16.6346L53.7467 16.5332L53.1154 15.5571L52.5276 15.9372ZM51.021 12.8738C49.2412 10.8962 47.06 8.64341 45.791 7.3573L44.7944 8.34058C46.0574 9.62057 48.2215 11.856 49.9804 13.8104L51.021 12.8738ZM43.9713 6.49766C42.9837 6.3749 41.5433 6.16094 39.801 6.90764L40.3525 8.19444C41.7153 7.61038 42.8138 7.76455 43.7986 7.88697L43.9713 6.49766ZM39.801 6.90764C39.8018 6.90731 39.7876 6.91321 39.7508 6.9245C39.7161 6.93514 39.6701 6.94794 39.6114 6.96276C39.4938 6.99248 39.3395 7.02676 39.1488 7.06528C38.7678 7.14222 38.2631 7.23173 37.6575 7.33128C36.4475 7.5302 34.857 7.76557 33.0944 8.01616C29.5613 8.51845 25.3858 9.07508 22.2005 9.52238L22.3952 10.9088C25.5532 10.4653 29.7697 9.9029 33.2914 9.40222C35.0563 9.15132 36.659 8.91422 37.8846 8.71274C38.4969 8.6121 39.0207 8.51942 39.4259 8.43758C39.8025 8.36152 40.1494 8.28151 40.3525 8.19444L39.801 6.90764ZM19.859 12.0178C19.7723 12.9537 19.6466 13.9802 19.4811 14.8289C19.3981 15.2544 19.3082 15.6188 19.2139 15.8982C19.1669 16.0376 19.1224 16.1447 19.0828 16.2225C19.0408 16.305 19.0174 16.3279 19.0235 16.3218L20.0135 17.3117C20.2675 17.0577 20.4281 16.6786 20.5404 16.3458C20.6625 15.9842 20.7663 15.5528 20.8552 15.0969C21.0334 14.1829 21.1643 13.1044 21.253 12.1471L19.859 12.0178ZM18.8554 16.5926C17.6936 20.0294 16.0656 25.247 14.9589 29.7296C14.4066 31.9666 13.9776 34.0462 13.806 35.6378C13.7207 36.4288 13.6944 37.1379 13.7628 37.6998C13.7969 37.9805 13.8586 38.2588 13.9702 38.503C14.0825 38.7487 14.2682 39.0072 14.5726 39.1594L15.1987 37.9072C15.2714 37.9435 15.2726 37.9846 15.2435 37.921C15.2137 37.8558 15.1771 37.733 15.1525 37.5306C15.1033 37.1262 15.1167 36.5409 15.1979 35.7879C15.3593 34.2915 15.7701 32.2847 16.3181 30.0651C17.412 25.6342 19.0269 20.4569 20.1816 17.0409L18.8554 16.5926ZM14.5726 39.1594C15.4609 39.6035 16.4865 39.2901 17.5002 38.6243C18.5418 37.9403 19.7759 36.757 21.2307 35.0322C24.1482 31.5734 28.0773 25.7863 33.2687 16.9832L32.0627 16.2721C26.882 25.0572 23.0005 30.7627 20.1606 34.1295C18.7368 35.8175 17.6055 36.8803 16.7317 37.4541C15.8299 38.0464 15.3898 38.0027 15.1987 37.9072L14.5726 39.1594ZM33.2687 16.9832C34.0179 15.7127 34.9723 14.3342 35.8605 12.9524L34.6829 12.1954C33.8338 13.5162 32.8284 14.9738 32.0627 16.2721L33.2687 16.9832ZM34.6829 12.1954L32.0769 16.2491L33.2545 17.0062L35.8605 12.9524L34.6829 12.1954ZM32.6657 17.3277C32.9598 17.3277 33.6162 17.4271 34.2828 17.6696C34.9698 17.9195 35.4927 18.2585 35.7123 18.6247L36.9128 17.9044C36.4376 17.1123 35.5283 16.6329 34.7613 16.3539C33.9738 16.0675 33.1543 15.9277 32.6657 15.9277V17.3277ZM36.6884 18.8551C37.1561 18.5574 37.9422 18.1995 38.7396 18.0974C39.5262 17.9968 40.2159 18.1512 40.7035 18.7201L41.7665 17.809C40.8642 16.7563 39.6236 16.5729 38.5619 16.7088C37.511 16.8432 36.5308 17.296 35.9368 17.674L36.6884 18.8551ZM41.5877 18.8692C42.0952 18.5732 43.0223 18.1864 44.0825 18.0385C45.1397 17.8909 46.2666 17.9881 47.245 18.5752L47.9653 17.3747C46.6273 16.5719 45.1483 16.4761 43.889 16.6519C42.6327 16.8273 41.5331 17.2803 40.8823 17.6599L41.5877 18.8692ZM53.1154 15.5571C52.642 14.8252 51.9648 13.9225 51.021 12.8738L49.9804 13.8104C50.8805 14.8105 51.5112 15.6546 51.9398 16.3174L53.1154 15.5571ZM48.1032 18.4669C48.575 17.9892 50.2187 16.8419 52.5886 16.6346L52.4666 15.2399C49.7403 15.4784 47.7936 16.788 47.1071 17.4831L48.1032 18.4669ZM22.2005 9.52238C20.9161 9.70274 19.9753 10.7636 19.859 12.0178L21.253 12.1471C21.3129 11.5017 21.7904 10.9937 22.3952 10.9088L22.2005 9.52238ZM45.791 7.3573C45.2869 6.8464 44.6215 6.57848 43.9713 6.49766L43.7986 7.88697C44.2012 7.93701 44.5534 8.09632 44.7944 8.34058L45.791 7.3573Z" fill="black"/>
<path d="M41.0068 18.02C39.6449 16.5275 37.3163 17.3685 36.227 18.0292C36.1789 18.0583 36.1165 18.043 36.0852 17.9963C35.3672 16.925 33.7314 16.6427 32.9551 16.6353L30.1552 21.1151C30.1136 21.1818 30.1615 21.2681 30.24 21.2681H30.3491C31.3276 21.2681 31.8239 20.5793 32.0125 20.0745C32.0448 19.9882 32.1776 19.9668 32.2321 20.0411C32.6046 20.5483 33.3809 21.2681 34.4029 21.2681C35.425 21.2681 36.3454 20.5481 36.8193 20.0409C36.8843 19.9713 37.0089 20.0167 37.0103 20.1119C37.0259 21.1234 37.2076 21.8721 39.3253 22.1368C40.6423 22.3014 40.9174 21.39 41.0297 20.8536C41.0452 20.7794 41.1335 20.7474 41.1938 20.7935C41.8541 21.2981 43.3153 22.1368 44.8268 22.1368C46.3172 22.1368 47.351 21.566 47.8832 21.0989C47.9416 21.0477 48.0433 21.073 48.0872 21.1372C48.3354 21.5009 49.1205 21.9355 50.3283 22.1368C51.9474 22.3392 52.8002 21.5249 53.1186 20.9297C53.162 20.8486 53.295 20.8443 53.339 20.9251C53.7064 21.5994 54.5085 22.4664 55.5403 21.8473C56.6985 21.1523 56.2159 19.9093 55.8298 19.5232C56.7533 20.4466 57.9146 19.7625 56.9881 18.3726C56.1357 17.094 54.4828 17.2694 53.4722 17.6814C53.3859 17.7165 53.2895 17.6247 53.3114 17.5342C53.6539 16.1203 51.4384 15.6948 50.6179 15.7666C48.1505 15.9825 48.0181 17.1311 47.4863 17.736C47.4559 17.7706 47.4046 17.7765 47.3647 17.7534C45.1064 16.4501 42.3243 17.375 41.1341 18.0422C41.0919 18.0658 41.0394 18.0556 41.0068 18.02Z" fill="white"/>
<path d="M32.9236 16.6353C32.934 16.6353 32.9445 16.6352 32.9551 16.6353M32.9551 16.6353C33.7314 16.6427 35.3672 16.925 36.0852 17.9963C36.1165 18.043 36.1789 18.0583 36.227 18.0292C37.3163 17.3685 39.6449 16.5275 41.0068 18.02C41.0394 18.0556 41.0919 18.0658 41.1341 18.0422C42.3243 17.375 45.1064 16.4501 47.3647 17.7534C47.4046 17.7765 47.4559 17.7706 47.4863 17.736C48.0181 17.1311 48.1505 15.9825 50.6179 15.7666C51.4384 15.6948 53.6539 16.1203 53.3114 17.5342C53.2895 17.6247 53.3859 17.7165 53.4722 17.6814C54.4828 17.2694 56.1357 17.094 56.9881 18.3726C57.9146 19.7625 56.7533 20.4466 55.8298 19.5232C56.2159 19.9093 56.6985 21.1523 55.5403 21.8473C54.5085 22.4664 53.7064 21.5994 53.339 20.9251C53.295 20.8443 53.162 20.8486 53.1186 20.9297C52.8002 21.5249 51.9474 22.3392 50.3283 22.1368C49.1205 21.9355 48.3354 21.5009 48.0872 21.1372C48.0433 21.073 47.9416 21.0477 47.8832 21.0989C47.351 21.566 46.3172 22.1368 44.8268 22.1368C43.3153 22.1368 41.8541 21.2981 41.1938 20.7935C41.1335 20.7474 41.0452 20.7794 41.0297 20.8536C40.9174 21.39 40.6423 22.3014 39.3253 22.1368C37.2076 21.8721 37.0259 21.1234 37.0103 20.1119C37.0089 20.0167 36.8843 19.9713 36.8193 20.0409C36.3454 20.5481 35.425 21.2681 34.4029 21.2681C33.3809 21.2681 32.6046 20.5483 32.2321 20.0411C32.1776 19.9668 32.0448 19.9882 32.0125 20.0745C31.8239 20.5793 31.3276 21.2681 30.3491 21.2681H30.24C30.1615 21.2681 30.1136 21.1818 30.1552 21.1151L32.9551 16.6353Z" stroke="black" stroke-width="1.4" stroke-linecap="round" stroke-linejoin="round"/>
<path d="M11.3736 38.129C12.7635 35.1176 14.0761 37.2603 14.5587 38.7081C16.296 37.5499 18.0333 39.2872 18.0333 40.4454C18.0333 41.372 16.8751 41.7967 16.296 41.8932C17.0682 42.7618 18.1492 44.7308 16.296 45.6574C14.4868 46.562 13.6343 45.1482 13.4153 44.2724C13.5914 45.0622 13.5314 46.526 11.9527 46.526C10.3312 46.526 9.92583 44.9817 9.92583 44.2096C8.47806 45.3678 7.0303 45.6574 5.58253 43.0514C4.19267 40.735 6.54771 39.9628 7.89896 39.8663C7.43568 36.16 10.0224 37.1638 11.3736 38.129Z" fill="white" stroke="black" stroke-width="1.2"/>
<path d="M15.6867 18.365C16.15 16.9752 17.424 17.0138 18.0032 17.2068C18.2348 16.7435 19.0569 16.0486 19.636 16.0486C19.3465 17.2068 18.3813 19.5232 17.8987 20.971C16.9721 20.7394 16.8449 20.1989 16.8449 19.8128C15.8718 20.1023 15.3972 19.2337 15.6867 18.365Z" fill="white" stroke="black" stroke-width="1.4"/>
</svg>
